STARTFONT 2.1
COMMENT METAFONT output 1995.04.13:1748
COMMENT fontid=MSBM V2.2
COMMENT codingscheme=TeX math symbols
COMMENT fontfacebyte
COMMENT jobname=msbm10
COMMENT mag=0.6
COMMENT mode=cx
COMMENT pixels_per_inch=300
COMMENT blacker=0
COMMENT fillin=0.2
COMMENT o_correction=0.6
COMMENT Checksum 88b616c8
COMMENT 
COMMENT This file is made by pktobdf using the above specified pk file.
COMMENT 
FONT -metafont-msbm10-medium-r-normal--25-240-75-75-P-162-MetaFont-FONTSPECIFIC
SIZE 25 75 75
FONTBOUNDINGBOX 60 33 -1 -10
STARTPROPERTIES 21
FONT_ASCENT 21
FONT_DESCENT 10
FOUNDRY "metafont"
FAMILY_NAME "msbm10"
WEIGHT_NAME "medium"
SLANT "r"
SETWIDTH_NAME "normal"
ADD_STYLE_NAME ""
PIXEL_SIZE 25
POINT_SIZE 240
RESOLUTOIN_X 75
RESOLUTOIN_Y 75
SPACING "P"
AVERAGE_WIDTH 162
CHARSET_REGISTRY "MetaFont"
CHARSET_ENCODING "FONTSPECIFIC"
AVG_CAPITAL_WIDTH 35
AVG_LOWERCASE_WIDTH 25
COPYRIGHT "MetaFont (public domain)"
DEVICE_FONT_NAME "msbm10"
FULLNAME "msbm10"
ENDPROPERTIES
CHARS 123
STARTCHAR Gamma
ENCODING 0
SWIDTH 757 0
DWIDTH 19 0
BBX 14 26 2 -7
BITMAP
0004
0018
0060
0180
0600
1800
6000
8000
6000
1800
0600
0180
0060
0018
0004
0000
0100
0100
fffc
0100
0100
0100
0100
fffc
0100
0100
ENDCHAR
STARTCHAR Delta
ENCODING 1
SWIDTH 757 0
DWIDTH 19 0
BBX 14 26 2 -7
BITMAP
8000
6000
1800
0600
0180
0060
0018
0004
0018
0060
0180
0600
1800
6000
8000
0000
0100
0100
fffc
0100
0100
0100
0100
fffc
0100
0100
ENDCHAR
STARTCHAR Theta
ENCODING 2
SWIDTH 757 0
DWIDTH 19 0
BBX 14 28 2 -8
BITMAP
0010
0010
0010
0020
0024
0038
0060
01c0
0680
0880
3080
c100
6100
1900
0600
0380
0240
0430
040c
0400
0800
0800
1000
fffc
1000
2000
2000
2000
ENDCHAR
STARTCHAR Lamdba
ENCODING 3
SWIDTH 757 0
DWIDTH 19 0
BBX 14 28 2 -8
BITMAP
0010
0010
0010
0020
8020
6020
1840
0640
0180
00c0
00b0
010c
0118
0160
0380
0600
0a00
3400
c400
0400
0800
0800
1000
fffc
1000
2000
2000
2000
ENDCHAR
STARTCHAR Xi
ENCODING 4
SWIDTH 757 0
DWIDTH 19 0
BBX 14 23 2 -5
BITMAP
0010
0010
0020
0020
0024
0058
0060
0180
0680
1900
6100
8200
6200
1a00
0600
0580
0860
0818
1004
1000
1000
2000
2000
ENDCHAR
STARTCHAR Pi
ENCODING 5
SWIDTH 757 0
DWIDTH 19 0
BBX 14 23 2 -5
BITMAP
0010
0010
0020
0020
8020
6040
1840
0680
0180
0160
0118
0204
0218
0260
0580
0600
1800
6800
9000
1000
1000
2000
2000
ENDCHAR
STARTCHAR Sigma
ENCODING 6
SWIDTH 757 0
DWIDTH 19 0
BBX 14 23 2 -5
BITMAP
0010
0010
0020
0020
0024
0044
0048
0088
0090
0160
0380
fe00
0380
0260
0410
0408
0808
0804
1004
1000
1000
2000
2000
ENDCHAR
STARTCHAR Upsilon
ENCODING 7
SWIDTH 757 0
DWIDTH 19 0
BBX 14 23 2 -5
BITMAP
0010
0010
0020
0020
8020
8040
4040
4080
2080
1900
0700
02fc
0700
1a00
2400
4400
4800
8800
9000
1000
1000
2000
2000
ENDCHAR
STARTCHAR Phi
ENCODING 8
SWIDTH 757 0
DWIDTH 19 0
BBX 14 27 2 -8
BITMAP
0004
0018
0060
0180
0600
1800
6000
8000
6000
1800
0600
0180
0060
0018
0004
0000
0020
0040
fffc
0080
0100
0200
0400
fffc
0800
1000
2000
ENDCHAR
STARTCHAR Psi
ENCODING 9
SWIDTH 757 0
DWIDTH 19 0
BBX 14 27 2 -8
BITMAP
8000
6000
1800
0600
0180
0060
0018
0004
0018
0060
0180
0600
1800
6000
8000
0000
0020
0040
fffc
0080
0100
0200
0400
fffc
0800
1000
2000
ENDCHAR
STARTCHAR Omega
ENCODING 10
SWIDTH 757 0
DWIDTH 19 0
BBX 14 28 2 -8
BITMAP
0010
0010
0010
0020
0024
0038
0060
01c0
0680
0880
3080
c100
6100
1900
0600
0380
8240
6430
1c0c
0600
0980
0840
1030
100c
1000
2000
2000
2000
ENDCHAR
STARTCHAR arrowup
ENCODING 11
SWIDTH 757 0
DWIDTH 19 0
BBX 14 28 2 -8
BITMAP
0010
0010
0010
0020
8020
6020
1840
0640
0180
00c0
00b0
010c
0118
0160
0380
0600
0a04
3418
c460
0580
0e00
0800
3000
d000
1000
2000
2000
2000
ENDCHAR
STARTCHAR arrowdown
ENCODING 12
SWIDTH 757 0
DWIDTH 19 0
BBX 14 23 2 -7
BITMAP
0004
0018
0060
0180
0600
1800
6000
8000
6000
1800
0600
0180
0060
0018
0004
0000
0000
0040
0080
fffc
0200
0400
0800
ENDCHAR
STARTCHAR quotesingle
ENCODING 13
SWIDTH 757 0
DWIDTH 19 0
BBX 14 23 2 -7
BITMAP
8000
6000
1800
0600
0180
0060
0018
0004
0018
0060
0180
0600
1800
6000
8000
0000
0000
0040
0080
fffc
0200
0400
0800
ENDCHAR
STARTCHAR exclamdown
ENCODING 14
SWIDTH 757 0
DWIDTH 19 0
BBX 14 28 2 -8
BITMAP
0010
0010
0010
0020
0024
0024
0048
0048
0090
00e0
0380
fd00
0380
0160
0210
0208
0208
0404
0404
0400
0800
0800
1000
fffc
1000
2000
2000
2000
ENDCHAR
STARTCHAR questiondown
ENCODING 15
SWIDTH 757 0
DWIDTH 19 0
BBX 14 28 2 -8
BITMAP
0010
0010
0010
0020
8020
8020
4040
4040
2080
1880
0780
01fc
0700
1900
2200
4200
4200
8400
8400
0400
0800
0800
1000
fffc
1000
2000
2000
2000
ENDCHAR
STARTCHAR dotlessi
ENCODING 16
SWIDTH 757 0
DWIDTH 19 0
BBX 16 28 1 -10
BITMAP
0002
0002
0004
0004
0008
0030
01c0
7e00
01c0
0030
0008
0004
0004
0002
0002
0000
0020
0020
0040
1c41
2281
4181
8182
8144
8238
0200
0400
0400
ENDCHAR
STARTCHAR dotlessj
ENCODING 17
SWIDTH 757 0
DWIDTH 19 0
BBX 16 28 1 -10
BITMAP
4000
4000
2000
2000
1000
0c00
0380
007e
0380
0c00
1000
2000
2000
4000
4000
0000
0020
0020
0040
1c41
2281
4181
8182
8144
8238
0200
0400
0400
ENDCHAR
STARTCHAR grave
ENCODING 18
SWIDTH 757 0
DWIDTH 19 0
BBX 16 28 1 -10
BITMAP
0002
000c
0030
00c0
0300
0c00
3000
4000
3000
0c00
0300
00c0
0030
000c
0002
0000
0020
0020
0040
1c41
2281
4181
8182
8144
8238
0200
0400
0400
ENDCHAR
STARTCHAR acute
ENCODING 19
SWIDTH 757 0
DWIDTH 19 0
BBX 16 28 1 -10
BITMAP
4000
3000
0c00
0300
00c0
0030
000c
0002
000c
0030
00c0
0300
0c00
3000
4000
0000
0020
0020
0040
1c41
2281
4181
8182
8144
8238
0200
0400
0400
ENDCHAR
STARTCHAR caron
ENCODING 20
SWIDTH 757 0
DWIDTH 19 0
BBX 14 33 2 -10
BITMAP
0010
0010
0010
0020
0024
0038
0060
01c0
0640
0840
3080
c080
6080
1900
0700
0180
0240
0230
020c
0200
0400
0400
fffc
0800
0800
0800
1000
fffc
1000
1000
2000
2000
2000
ENDCHAR
STARTCHAR breve
ENCODING 21
SWIDTH 757 0
DWIDTH 19 0
BBX 14 33 2 -10
BITMAP
0010
0010
0010
0020
8020
6020
1820
0640
01c0
0040
00b0
008c
0098
0160
0180
0700
0a00
3200
c200
0200
0400
0400
fffc
0800
0800
0800
1000
fffc
1000
1000
2000
2000
2000
ENDCHAR
STARTCHAR macron
ENCODING 22
SWIDTH 757 0
DWIDTH 19 0
BBX 14 27 2 -8
BITMAP
0004
0004
0008
0008
0010
0060
0380
fc00
0380
0060
0010
0008
0008
0004
0004
0000
0020
0040
fffc
0080
0100
0200
0400
fffc
0800
1000
2000
ENDCHAR
STARTCHAR ring
ENCODING 23
SWIDTH 757 0
DWIDTH 19 0
BBX 14 27 2 -8
BITMAP
8000
8000
4000
4000
2000
1800
0700
00fc
0700
1800
2000
4000
4000
8000
8000
0000
0020
0040
fffc
0080
0100
0200
0400
fffc
0800
1000
2000
ENDCHAR
STARTCHAR cedilla
ENCODING 24
SWIDTH 757 0
DWIDTH 19 0
BBX 16 27 1 -8
BITMAP
0002
0002
0004
0004
0018
00e0
7f00
00e0
0018
0004
0004
0002
0002
0000
0020
1c21
6241
41c2
80c6
80b8
0080
1d01
6301
4382
8246
8438
0400
ENDCHAR
STARTCHAR germandbls
ENCODING 25
SWIDTH 757 0
DWIDTH 19 0
BBX 16 27 1 -8
BITMAP
4000
4000
2000
2000
1800
0700
00fe
0700
1800
2000
2000
4000
4000
0000
0020
1c21
6241
41c2
80c6
80b8
0080
1d01
6301
4382
8246
8438
0400
ENDCHAR
STARTCHAR ae
ENCODING 26
SWIDTH 757 0
DWIDTH 19 0
BBX 16 28 1 -9
BITMAP
0006
0018
0060
0180
0600
1800
6000
1800
0600
0180
0060
0018
0006
0020
0020
3c21
4241
81c1
80c2
80bc
0080
3d01
4301
8381
8242
843c
0400
0400
ENDCHAR
STARTCHAR oe
ENCODING 27
SWIDTH 757 0
DWIDTH 19 0
BBX 16 28 1 -9
BITMAP
6000
1800
0600
0180
0060
0018
0006
0018
0060
0180
0600
1800
6000
0020
0020
3c21
4241
81c1
80c2
80bc
0080
3d01
4301
8381
8242
843c
0400
0400
ENDCHAR
STARTCHAR oslash
ENCODING 28
SWIDTH 757 0
DWIDTH 19 0
BBX 16 10 1 1
BITMAP
0010
0020
1c41
7e41
6381
81c6
827e
8238
0400
0800
ENDCHAR
STARTCHAR AE
ENCODING 29
SWIDTH 757 0
DWIDTH 19 0
BBX 16 20 1 -4
BITMAP
0008
0008
3e11
4111
80a2
806c
8050
0040
0080
0080
0100
ffff
0200
0200
0400
0400
ffff
0800
1000
1000
ENDCHAR
STARTCHAR OE
ENCODING 30
SWIDTH 877 0
DWIDTH 22 0
BBX 22 23 0 -5
BITMAP
000004
000008
000010
000020
000040
000080
000100
000100
000200
000400
000800
001000
002000
004000
008000
010000
020000
040000
080000
100000
200000
400000
800000
ENDCHAR
STARTCHAR Oslash
ENCODING 31
SWIDTH 877 0
DWIDTH 22 0
BBX 22 23 0 -5
BITMAP
800000
400000
200000
100000
080000
040000
020000
010000
008000
004000
002000
001000
000800
000400
000200
000100
000100
000080
000040
000020
000010
000008
000004
ENDCHAR
STARTCHAR tilde
ENCODING 32
SWIDTH 757 0
DWIDTH 19 0
BBX 14 23 2 -7
BITMAP
07fc
1800
2000
4000
4000
8000
8000
8000
8000
8000
4000
4020
2020
1840
07fc
0080
0100
0200
0400
fffc
0800
1000
1000
ENDCHAR
STARTCHAR exclam
ENCODING 33
SWIDTH 757 0
DWIDTH 19 0
BBX 14 23 2 -7
BITMAP
ff80
0060
0010
0008
0008
0004
0004
0004
0004
0004
0008
0108
0210
0260
ff80
0800
0800
1000
2000
fffc
4000
4000
8000
ENDCHAR
STARTCHAR quotedblright
ENCODING 34
SWIDTH 757 0
DWIDTH 19 0
BBX 14 29 2 -8
BITMAP
0008
0008
07fc
1810
2020
4020
4020
8040
8040
8080
8080
8080
4100
4100
2200
1a00
07fc
0400
0400
0400
0800
fffc
1000
1000
1000
2000
fffc
4000
4000
ENDCHAR
STARTCHAR numbersign
ENCODING 35
SWIDTH 757 0
DWIDTH 19 0
BBX 14 29 2 -8
BITMAP
0008
0008
ff90
0070
0030
0028
0028
0044
0044
0084
0084
0084
0108
0108
0210
0260
ff80
0400
0400
0400
0800
fffc
1000
1000
1000
2000
fffc
4000
4000
ENDCHAR
STARTCHAR dollar
ENCODING 36
SWIDTH 757 0
DWIDTH 19 0
BBX 14 30 2 -10
BITMAP
07fc
1800
2000
4000
4000
8000
8000
8000
8000
8000
4000
4000
2000
1800
07fc
0000
0000
0010
0020
0020
0040
fffc
0100
0100
0200
0400
fffc
0800
1000
2000
ENDCHAR
STARTCHAR percent
ENCODING 37
SWIDTH 757 0
DWIDTH 19 0
BBX 14 30 2 -10
BITMAP
ff80
0060
0010
0008
0008
0004
0004
0004
0004
0004
0008
0008
0010
0060
ff80
0000
0000
0010
0020
0020
0040
fffc
0100
0100
0200
0400
fffc
0800
1000
2000
ENDCHAR
STARTCHAR ampersand
ENCODING 38
SWIDTH 757 0
DWIDTH 19 0
BBX 14 28 2 -9
BITMAP
07fc
1800
2000
4000
4000
8000
8000
8000
8000
8000
4000
4008
2008
1810
07fc
0020
0040
0040
0080
fffc
0100
0100
0200
0400
fffc
0800
0800
1000
ENDCHAR
STARTCHAR quoteright
ENCODING 39
SWIDTH 757 0
DWIDTH 19 0
BBX 14 28 2 -9
BITMAP
ff80
0060
0010
0008
0008
0004
0004
0004
0004
0004
0008
0008
0210
0260
ff80
0400
0400
0800
0800
fffc
1000
1000
1000
2000
fffc
2000
4000
4000
ENDCHAR
STARTCHAR parenleft
ENCODING 40
SWIDTH 757 0
DWIDTH 19 0
BBX 14 22 2 -6
BITMAP
07fc
1800
2000
4000
4000
8000
8000
8000
8000
8000
4000
4000
2000
1800
07fc
0000
0000
0040
0080
fffc
0400
0800
ENDCHAR
STARTCHAR parenright
ENCODING 41
SWIDTH 757 0
DWIDTH 19 0
BBX 14 22 2 -6
BITMAP
ff80
0060
0010
0008
0008
0004
0004
0004
0004
0004
0008
0008
0010
0060
ff80
0000
0000
0080
0100
fffc
0200
0400
ENDCHAR
STARTCHAR asterisk
ENCODING 42
SWIDTH 757 0
DWIDTH 19 0
BBX 14 28 2 -8
BITMAP
0010
0010
0010
0020
07fc
1820
2040
4040
4080
8080
8080
8100
8100
8100
4200
4200
2200
1c00
07fc
0400
0800
0800
1000
fffc
1000
2000
2000
2000
ENDCHAR
STARTCHAR plus
ENCODING 43
SWIDTH 757 0
DWIDTH 19 0
BBX 14 28 2 -8
BITMAP
0010
0010
0010
0020
ffa0
0060
0050
0048
0088
0084
0084
0104
0104
0104
0208
0208
0210
0460
ff80
0400
0800
0800
1000
fffc
1000
2000
2000
2000
ENDCHAR
STARTCHAR comma
ENCODING 44
SWIDTH 478 0
DWIDTH 12 0
BBX 11 25 0 -6
BITMAP
2080
2080
2080
2080
2080
2080
20a0
20c0
20c0
2080
2180
2280
2480
2880
3080
2080
6080
6080
a080
2080
2080
2080
2080
2080
2080
ENDCHAR
STARTCHAR hyphen
ENCODING 45
SWIDTH 279 0
DWIDTH 7 0
BBX 6 25 0 -6
BITMAP
10
10
10
10
10
10
14
18
10
10
30
50
90
10
10
10
10
10
10
10
10
10
10
10
10
ENDCHAR
STARTCHAR period
ENCODING 46
SWIDTH 239 0
DWIDTH 6 0
BBX 5 11 0 0
BITMAP
10
10
18
10
30
50
90
10
10
10
10
ENDCHAR
STARTCHAR slash
ENCODING 47
SWIDTH 398 0
DWIDTH 10 0
BBX 9 11 0 0
BITMAP
4100
4180
4100
4700
4900
7100
4100
c100
4100
4100
4100
ENDCHAR
STARTCHAR 0
ENCODING 48
SWIDTH 598 0
DWIDTH 15 0
BBX 14 17 -1 0
BITMAP
2004
2008
2010
2020
2040
2040
2080
2100
3ffc
2400
2800
2800
3000
2000
6000
a000
a000
ENDCHAR
STARTCHAR 1
ENCODING 49
SWIDTH 717 0
DWIDTH 18 0
BBX 17 17 -1 0
BITMAP
210080
210100
210200
210400
210800
211000
212000
214000
21ff80
210000
230000
250000
290000
310000
210000
610000
a10000
ENDCHAR
STARTCHAR 2
ENCODING 50
SWIDTH 598 0
DWIDTH 15 0
BBX 14 17 -1 0
BITMAP
2004
2008
2010
2020
2040
3ffc
2080
2100
2200
2400
3ffc
2800
3000
2000
6000
a000
a000
ENDCHAR
STARTCHAR 3
ENCODING 51
SWIDTH 717 0
DWIDTH 18 0
BBX 17 17 -1 0
BITMAP
210080
210100
210200
210400
210800
21ff80
212000
214000
218000
210000
230000
25ff80
290000
310000
210000
610000
a10000
ENDCHAR
STARTCHAR 4
ENCODING 52
SWIDTH 757 0
DWIDTH 19 0
BBX 14 28 2 -8
BITMAP
0010
0010
0020
0020
8020
e040
9840
8640
8180
80e0
8098
8104
8118
8160
8280
8300
8e00
b400
c400
0400
0800
0800
0800
fffc
1000
1000
2000
2000
ENDCHAR
STARTCHAR 5
ENCODING 53
SWIDTH 757 0
DWIDTH 19 0
BBX 13 28 3 -8
BITMAP
0020
0020
0040
0040
0048
00b8
00c8
0188
0708
1908
6108
8208
4208
3208
0c08
0708
04c8
0828
0818
0800
1000
1000
1000
fff8
2000
2000
4000
4000
ENDCHAR
STARTCHAR 6
ENCODING 54
SWIDTH 757 0
DWIDTH 19 0
BBX 13 23 3 -5
BITMAP
0020
0020
0040
0040
0088
00b8
00c8
0108
0708
1a08
6208
8408
4408
3408
0c08
0b08
10c8
1028
1018
2000
2000
4000
4000
ENDCHAR
STARTCHAR 7
ENCODING 55
SWIDTH 757 0
DWIDTH 19 0
BBX 14 23 2 -5
BITMAP
0010
0010
0020
0020
8040
e040
9840
8680
8180
8160
8118
8204
8218
8260
8480
8700
8c00
b800
c800
1000
1000
2000
2000
ENDCHAR
STARTCHAR 8
ENCODING 56
SWIDTH 997 0
DWIDTH 25 0
BBX 22 10 1 1
BITMAP
080400
080400
100800
201000
fffffc
202000
102000
084000
088000
008000
ENDCHAR
STARTCHAR 9
ENCODING 57
SWIDTH 997 0
DWIDTH 25 0
BBX 22 10 1 1
BITMAP
000440
000440
000820
001010
fffffc
002010
002020
004040
008040
008000
ENDCHAR
STARTCHAR colon
ENCODING 58
SWIDTH 997 0
DWIDTH 25 0
BBX 22 13 1 0
BITMAP
008080
010100
010100
03fffc
0c0200
300400
c00400
300400
0c0800
03fffc
011000
011000
009000
ENDCHAR
STARTCHAR semicolon
ENCODING 59
SWIDTH 997 0
DWIDTH 25 0
BBX 22 13 1 0
BITMAP
002400
002200
002200
ffff00
0040c0
008030
00800c
008030
0100c0
ffff00
020200
020200
040400
ENDCHAR
STARTCHAR less
ENCODING 60
SWIDTH 997 0
DWIDTH 25 0
BBX 22 14 1 -1
BITMAP
010a00
020900
040880
07ff80
181060
201010
c0100c
202010
182060
07ff80
044080
024100
014200
004000
ENDCHAR
STARTCHAR equal
ENCODING 61
SWIDTH 997 0
DWIDTH 25 0
BBX 22 10 1 1
BITMAP
080440
080440
100820
201010
fffffc
202010
102020
084040
088040
008000
ENDCHAR
STARTCHAR greater
ENCODING 62
SWIDTH 757 0
DWIDTH 19 0
BBX 16 15 1 -1
BITMAP
0080
21c4
1088
0810
0420
0240
0180
ffff
0180
0240
0420
0810
1088
21c4
0080
ENDCHAR
STARTCHAR question
ENCODING 63
SWIDTH 757 0
DWIDTH 19 0
BBX 16 15 1 0
BITMAP
07e1
0812
100c
200c
4012
4022
4042
4181
4202
4402
4802
3004
3008
4810
87e0
ENDCHAR
STARTCHAR at
ENCODING 64
SWIDTH 558 0
DWIDTH 14 0
BBX 11 25 1 -4
BITMAP
0100
0100
0100
0100
ffe0
0220
0220
0220
0220
0220
0420
0420
ffe0
0420
0420
0820
0820
0820
0820
0820
ffe0
1000
1000
1000
1000
ENDCHAR
STARTCHAR A
ENCODING 65
SWIDTH 717 0
DWIDTH 18 0
BBX 18 17 0 0
BITMAP
008000
00c000
014000
012000
022000
031000
031000
048800
048800
084400
084400
1fe200
102200
101100
301100
301080
f87fc0
ENDCHAR
STARTCHAR B
ENCODING 66
SWIDTH 678 0
DWIDTH 17 0
BBX 16 17 0 0
BITMAP
fff0
224c
2222
2222
2222
2222
222c
23f0
22dc
2222
2221
2221
2221
2221
2222
224c
fff0
ENDCHAR
STARTCHAR C
ENCODING 67
SWIDTH 717 0
DWIDTH 18 0
BBX 16 17 1 0
BITMAP
07e1
1a1f
2207
4401
4400
8400
8400
8400
8400
8400
8400
8400
4400
4400
2201
1a0e
07f0
ENDCHAR
STARTCHAR D
ENCODING 68
SWIDTH 717 0
DWIDTH 18 0
BBX 18 17 0 0
BITMAP
fff000
222c00
221300
221080
220880
220840
220840
220840
220840
220840
220840
220880
220880
221100
221200
222c00
fff000
ENDCHAR
STARTCHAR E
ENCODING 69
SWIDTH 638 0
DWIDTH 16 0
BBX 16 17 1 0
BITMAP
fffc
221c
2204
2200
2200
2210
2210
23f0
23f0
2210
2210
2200
2200
2201
2202
2206
fffe
ENDCHAR
STARTCHAR F
ENCODING 70
SWIDTH 598 0
DWIDTH 15 0
BBX 14 17 1 0
BITMAP
fffc
221c
220c
2200
2200
2220
2220
23e0
23e0
2220
2220
2200
2200
2200
2200
2200
ffc0
ENDCHAR
STARTCHAR G
ENCODING 71
SWIDTH 717 0
DWIDTH 18 0
BBX 18 17 1 0
BITMAP
07f100
0a1f00
320700
420100
440000
840000
840000
840000
840000
840000
840000
840000
44ffc0
441100
321100
0a1700
07f800
ENDCHAR
STARTCHAR H
ENCODING 72
SWIDTH 757 0
DWIDTH 19 0
BBX 19 17 0 0
BITMAP
ffbfe0
220880
220880
220880
220880
220880
220880
23f880
220880
220880
220880
220880
220880
220880
220880
220880
ffbfe0
ENDCHAR
STARTCHAR I
ENCODING 73
SWIDTH 398 0
DWIDTH 10 0
BBX 9 17 1 0
BITMAP
ff80
2200
2200
2200
2200
2200
2200
2200
2200
2200
2200
2200
2200
2200
2200
2200
ff80
ENDCHAR
STARTCHAR J
ENCODING 74
SWIDTH 518 0
DWIDTH 13 0
BBX 12 19 0 -2
BITMAP
3ff0
0440
0440
0440
0440
0440
0440
0440
0440
0440
0440
0440
0440
0440
0440
fc40
8c40
5580
3e00
ENDCHAR
STARTCHAR K
ENCODING 75
SWIDTH 797 0
DWIDTH 20 0
BBX 19 17 0 0
BITMAP
ff8fe0
220500
220600
220400
220800
221000
226000
229000
230800
228800
228400
224200
222200
222100
221080
220880
ffbfe0
ENDCHAR
STARTCHAR L
ENCODING 76
SWIDTH 678 0
DWIDTH 17 0
BBX 16 17 1 0
BITMAP
ff80
2200
2200
2200
2200
2200
2200
2200
2200
2200
2200
2200
2200
2201
2202
2206
fffe
ENDCHAR
STARTCHAR M
ENCODING 77
SWIDTH 957 0
DWIDTH 24 0
BBX 23 17 1 0
BITMAP
ff00fe
290388
290388
288388
248588
248688
244688
224c88
224c88
222c88
213888
211888
20b888
20b088
20a088
204088
f843fe
ENDCHAR
STARTCHAR N
ENCODING 78
SWIDTH 717 0
DWIDTH 18 0
BBX 18 17 0 0
BITMAP
fe07c0
610100
208100
304100
282100
241100
220900
210900
208500
204300
202100
201100
201100
200900
200500
200300
f80100
ENDCHAR
STARTCHAR O
ENCODING 79
SWIDTH 797 0
DWIDTH 20 0
BBX 17 17 1 0
BITMAP
07f000
0a2800
322600
441100
441100
841080
841080
841080
841080
841080
841080
841080
441100
441100
322600
0a2800
07f000
ENDCHAR
STARTCHAR P
ENCODING 80
SWIDTH 598 0
DWIDTH 15 0
BBX 15 17 0 0
BITMAP
fff0
2248
2244
2242
2242
2242
2242
2242
2244
224c
23f0
2200
2200
2200
2200
2200
ff80
ENDCHAR
STARTCHAR Q
ENCODING 81
SWIDTH 797 0
DWIDTH 20 0
BBX 17 21 1 -4
BITMAP
07f000
0a2800
322600
441100
441100
841080
841080
841080
841080
841080
841080
841080
441100
441100
322600
0a2800
07f000
021000
011000
00c800
003f80
ENDCHAR
STARTCHAR R
ENCODING 82
SWIDTH 717 0
DWIDTH 18 0
BBX 18 17 0 0
BITMAP
fff000
224c00
222200
222100
222100
222100
222100
222100
222200
222400
23f800
228800
224400
223200
220900
220480
ff83c0
ENDCHAR
STARTCHAR S
ENCODING 83
SWIDTH 558 0
DWIDTH 14 0
BBX 12 17 1 0
BITMAP
1f20
70e0
a060
a020
9000
8c00
8380
4040
3020
0c10
0310
0090
0050
8050
c050
f060
8f80
ENDCHAR
STARTCHAR T
ENCODING 84
SWIDTH 678 0
DWIDTH 17 0
BBX 15 17 1 0
BITMAP
fffe
e44e
8442
8442
0440
0440
0440
0440
0440
0440
0440
0440
0440
0440
0440
0440
1ff0
ENDCHAR
STARTCHAR U
ENCODING 85
SWIDTH 717 0
DWIDTH 18 0
BBX 17 17 0 0
BITMAP
ff8f80
220200
220200
220200
220200
220200
220200
220200
220200
220200
220200
220200
220200
220200
220600
190c00
07f000
ENDCHAR
STARTCHAR V
ENCODING 86
SWIDTH 717 0
DWIDTH 18 0
BBX 18 17 0 0
BITMAP
ff07c0
420280
220300
220300
110200
110200
088400
088400
048800
044800
024800
023000
013000
012000
00a000
00c000
004000
ENDCHAR
STARTCHAR W
ENCODING 87
SWIDTH 997 0
DWIDTH 25 0
BBX 25 17 0 0
BITMAP
fe3fcf80
44108300
44108300
22088200
22088600
120c8400
110c4400
11144c00
08922800
08a22800
04a13000
04411000
04411000
0280a000
0280a000
01004000
01004000
ENDCHAR
STARTCHAR X
ENCODING 88
SWIDTH 717 0
DWIDTH 18 0
BBX 18 17 0 0
BITMAP
ffdf80
410e00
210c00
108800
089000
045000
042000
022000
011000
010800
018800
024400
044200
082200
182100
281080
7e7fc0
ENDCHAR
STARTCHAR Y
ENCODING 89
SWIDTH 717 0
DWIDTH 18 0
BBX 18 17 0 0
BITMAP
ff0fc0
420300
220200
210200
110400
110800
109000
08a000
086000
044000
044000
044000
044000
044000
044000
044000
1ff000
ENDCHAR
STARTCHAR Z
ENCODING 90
SWIDTH 678 0
DWIDTH 17 0
BBX 15 17 1 0
BITMAP
7ffe
6044
8084
0108
0108
0210
0220
0420
0840
0880
1080
1100
2100
4202
4402
841e
fffe
ENDCHAR
STARTCHAR bracketleft
ENCODING 91
SWIDTH 1874 0
DWIDTH 47 0
BBX 48 6 -1 15
BITMAP
000003c00000
00007ffe0000
0007f00fe000
00fe00007f00
0fc0000003f0
f8000000001f
ENDCHAR
STARTCHAR leftdblquote
ENCODING 92
SWIDTH 2313 0
DWIDTH 58 0
BBX 59 6 -1 15
BITMAP
0000001f00000000
000007fffc000000
0000ff803fe00000
003fe00000ff8000
07f800000003fc00
fc000000000007e0
ENDCHAR
STARTCHAR bracketright
ENCODING 93
SWIDTH 1874 0
DWIDTH 47 0
BBX 46 5 0 16
BITMAP
001ff000000c
03fffe00007c
1fc00fc00fe0
f80001ffff00
c000003fe000
ENDCHAR
STARTCHAR circumflex
ENCODING 94
SWIDTH 2313 0
DWIDTH 58 0
BBX 57 6 0 16
BITMAP
0000ff8000000180
001ffff000001f80
01fe00380001fc00
1fc0000e003fc000
fc000007fffc0000
c0000000ff800000
ENDCHAR
STARTCHAR leftquote
ENCODING 96
SWIDTH 558 0
DWIDTH 14 0
BBX 11 17 1 0
BITMAP
0020
0020
0020
0020
0020
0020
0020
0020
0fe0
0020
0020
0020
0020
0020
0020
0020
ffe0
ENDCHAR
STARTCHAR a
ENCODING 97
SWIDTH 638 0
DWIDTH 16 0
BBX 12 17 1 0
BITMAP
3e00
c180
0040
0020
0020
0010
0010
0010
f810
8010
8010
8010
8020
8020
8040
8180
7e00
ENDCHAR
STARTCHAR f
ENCODING 102
SWIDTH 717 0
DWIDTH 18 0
BBX 15 17 1 0
BITMAP
783c
783c
8822
9012
1010
3018
2008
600c
4004
c006
c006
c006
c006
600c
600c
1830
0fe0
ENDCHAR
STARTCHAR g
ENCODING 103
SWIDTH 558 0
DWIDTH 14 0
BBX 11 17 1 0
BITMAP
7040
0fc0
4f00
7180
40c0
00c0
1e60
2160
60e0
c060
c060
c060
c060
c040
60c0
3180
1e00
ENDCHAR
STARTCHAR h
ENCODING 104
SWIDTH 757 0
DWIDTH 19 0
BBX 16 11 1 1
BITMAP
ffff
0000
0000
0000
0000
0801
3601
4101
8082
8046
8038
ENDCHAR
STARTCHAR i
ENCODING 105
SWIDTH 678 0
DWIDTH 17 0
BBX 15 18 1 0
BITMAP
fff0
7ff8
3ffc
0004
0004
0004
0004
0004
0004
0004
0004
0004
0004
0004
0004
0004
7ffe
fffc
ENDCHAR
STARTCHAR j
ENCODING 106
SWIDTH 438 0
DWIDTH 11 0
BBX 8 18 1 0
BITMAP
fc
7e
3e
02
02
02
02
03
03
03
03
03
03
03
03
03
7f
ff
ENDCHAR
STARTCHAR k
ENCODING 107
SWIDTH 678 0
DWIDTH 17 0
BBX 14 18 1 0
BITMAP
fff0
7ff8
3ff8
0008
0008
0008
0008
000c
000c
000c
000c
000c
000c
000c
000c
000c
000c
000c
ENDCHAR
STARTCHAR l
ENCODING 108
SWIDTH 757 0
DWIDTH 19 0
BBX 14 15 2 -1
BITMAP
0004
0018
0060
0180
0600
1800
6060
8070
6060
1800
0600
0180
0060
0018
0004
ENDCHAR
STARTCHAR m
ENCODING 109
SWIDTH 757 0
DWIDTH 19 0
BBX 14 15 2 -1
BITMAP
8000
6000
1800
0600
0180
0060
1818
3804
1818
0060
0180
0600
1800
6000
8000
ENDCHAR
STARTCHAR n
ENCODING 110
SWIDTH 757 0
DWIDTH 19 0
BBX 12 13 3 0
BITMAP
8010
c020
a040
9080
8900
8600
8400
8600
8900
9080
a040
c020
8010
ENDCHAR
STARTCHAR o
ENCODING 111
SWIDTH 757 0
DWIDTH 19 0
BBX 12 13 3 0
BITMAP
8010
4030
2050
1090
0910
0610
0410
0610
0910
1090
2050
4030
8010
ENDCHAR
STARTCHAR p
ENCODING 112
SWIDTH 239 0
DWIDTH 6 0
BBX 1 11 3 0
BITMAP
80
80
80
80
80
80
80
80
80
80
80
ENDCHAR
STARTCHAR q
ENCODING 113
SWIDTH 398 0
DWIDTH 10 0
BBX 7 11 1 0
BITMAP
82
82
82
82
82
82
82
82
82
82
82
ENDCHAR
STARTCHAR r
ENCODING 114
SWIDTH 757 0
DWIDTH 19 0
BBX 14 11 2 0
BITMAP
8000
6000
1000
0800
0400
0300
0080
0040
0020
0018
0004
ENDCHAR
STARTCHAR s
ENCODING 115
SWIDTH 757 0
DWIDTH 19 0
BBX 16 6 1 3
BITMAP
1c01
7e01
6381
81c6
807e
8038
ENDCHAR
STARTCHAR t
ENCODING 116
SWIDTH 757 0
DWIDTH 19 0
BBX 16 11 1 1
BITMAP
3c01
7f01
c3c3
80fe
803c
0000
3c01
7f01
c3c3
80fe
803c
ENDCHAR
STARTCHAR u
ENCODING 117
SWIDTH 757 0
DWIDTH 19 0
BBX 16 16 1 -2
BITMAP
1c01
6201
4182
8046
8038
0000
1c01
6201
4182
8046
8038
0000
0000
0000
0000
ffff
ENDCHAR
STARTCHAR v
ENCODING 118
SWIDTH 757 0
DWIDTH 19 0
BBX 16 26 1 -7
BITMAP
4000
4000
2000
2000
1800
0700
00fe
0700
1800
2000
2000
4000
4000
0000
0000
1c01
6201
4182
8046
8038
0000
1c01
6201
4182
8046
8038
ENDCHAR
STARTCHAR w
ENCODING 119
SWIDTH 757 0
DWIDTH 19 0
BBX 16 26 1 -7
BITMAP
0002
0002
0004
0004
0018
00e0
7f00
00e0
0018
0004
0004
0002
0002
0000
0000
1c01
6201
4182
8046
8038
0000
1c01
6201
4182
8046
8038
ENDCHAR
STARTCHAR x
ENCODING 120
SWIDTH 997 0
DWIDTH 25 0
BBX 23 11 0 0
BITMAP
001f00
0060c0
008020
010010
020008
020004
c48004
250004
160002
0c0002
080000
ENDCHAR
STARTCHAR y
ENCODING 121
SWIDTH 997 0
DWIDTH 25 0
BBX 24 11 1 0
BITMAP
01f800
060600
080100
100080
200040
400040
400123
4000a4
800068
800030
000010
ENDCHAR
STARTCHAR z
ENCODING 122
SWIDTH 757 0
DWIDTH 19 0
BBX 16 17 1 -2
BITMAP
0fff
0e00
0e00
0e00
1c00
1c00
1c00
1c00
3fc0
3800
3800
3800
7000
7000
7000
7000
e000
ENDCHAR
STARTCHAR endash
ENCODING 123
SWIDTH 678 0
DWIDTH 17 0
BBX 15 11 2 0
BITMAP
0802
3c0e
6418
0470
08e0
0ba0
1640
1c40
304c
e078
8060
ENDCHAR
STARTCHAR emdash
ENCODING 124
SWIDTH 558 0
DWIDTH 14 0
BBX 14 17 0 0
BITMAP
fc00
4400
4400
4400
4400
447c
4430
4440
4480
4540
4640
4620
4620
4510
4510
4508
fff8
ENDCHAR
STARTCHAR quotedbl
ENCODING 125
SWIDTH 518 0
DWIDTH 13 0
BBX 11 17 1 0
BITMAP
3c00
0c00
0cc0
1f00
3800
5800
1f80
38c0
30c0
30c0
30c0
6180
6180
61a0
6320
c340
c180
ENDCHAR
STARTCHAR hungarumlaut
ENCODING 126
SWIDTH 518 0
DWIDTH 13 0
BBX 11 17 1 0
BITMAP
3c00
0c00
0c00
3fc0
1800
1800
1f80
38c0
30c0
30c0
30c0
6180
6180
61a0
6320
c340
c180
ENDCHAR
STARTCHAR dieresis
ENCODING 127
SWIDTH 438 0
DWIDTH 11 0
BBX 8 11 3 0
BITMAP
38
46
02
03
03
03
7e
06
0c
18
f0
ENDCHAR
ENDFONT
